<svg id="Layer_5" enable-background="new 0 0 64 64" height="512" viewBox="0 0 64 64" width="512" xmlns="http://www.w3.org/2000/svg"><g><path d="m19 7v2h3c1.654 0 3 1.346 3 3v7h32v-2h-10v-10z"/><path d="m22.399 32.867c.173.229.601.088.601-.2v-20.667c0-.552-.448-1-1-1h-18c-.552 0-1 .448-1 1v16c0 .552.448 1 1 1h15.5zm-10.399-13.867h2c1.654 0 3 1.346 3 3v3h-3v2h-2v-2c-1.654 0-3-1.346-3-3h2c0 .552.448 1 1 1h3v-1c0-.552-.448-1-1-1h-2c-1.654 0-3-1.346-3-3v-3h3v-2h2v2c1.654 0 3 1.346 3 3h-2c0-.552-.448-1-1-1h-3v1c0 .552.448 1 1 1z"/><path d="m18 31h-10v22h10zm-4 20h-2v-2h2zm0-4h-2v-2h2zm0-4h-2v-2h2zm0-4h-2v-2h2zm0-4h-2v-2h2z"/><path d="m8.804 55 3.513 5.622c.297.473 1.068.473 1.365 0l3.514-5.622z"/><path d="m41.366 50.22c-.242-.717-.366-1.461-.366-2.22 0-3.859 3.141-7 7-7 .759 0 1.503.124 2.22.366l1.537-1.537c-1.176-.544-2.454-.829-3.757-.829-4.963 0-9 4.037-9 9 0 1.303.285 2.581.829 3.757z"/><path d="m49.586 3h-34.586v6h2v-4h30.414l11.586 11.586v4.414h-34v11.667c0 1.286-1.047 2.333-2.333 2.333-.731 0-1.429-.349-1.867-.934l-.8-1.066v21.287l-4.195 6.713h45.195v-46.586zm-18.586 20h28v2h-28zm-4 0h2v2h-2zm0 4h32v2h-32zm0 4h32v2h-32zm8 28h-13v-2h13zm0-4h-13v-2h13zm0-4h-13v-2h13zm0-4h-13v-2h13zm0-4h-13v-2h13zm0-4h-13v-2h13zm24 9c0 6.065-4.935 11-11 11-1.838 0-3.636-.461-5.247-1.339l-1.753 1.753-4.414-4.414 1.753-1.753c-.878-1.611-1.339-3.409-1.339-5.247 0-6.065 4.935-11 11-11 1.838 0 3.636.461 5.247 1.339l1.753-1.753 4.414 4.414-1.753 1.753c.878 1.611 1.339 3.409 1.339 5.247z"/><path d="m54.634 45.78c.242.717.366 1.461.366 2.22 0 3.859-3.141 7-7 7-.759 0-1.503-.124-2.22-.366l-1.537 1.537c1.176.544 2.454.829 3.757.829 4.963 0 9-4.037 9-9 0-1.303-.285-2.581-.829-3.757z"/><path d="m36.979 46.879h22.042v2.243h-22.042z" transform="matrix(.707 -.707 .707 .707 -19.882 48)"/></g></svg>