<?xml version="1.0" encoding="utf-8"?>
<!-- Generator: Adobe Illustrator 24.1.0, SVG Export Plug-In . SVG Version: 6.00 Build 0)  -->
<svg version="1.1" id="Layer_1" xmlns="http://www.w3.org/2000/svg" xmlns:xlink="http://www.w3.org/1999/xlink" x="0px" y="0px"
	 viewBox="0 0 200 200" style="enable-background:new 0 0 200 200;" xml:space="preserve">
<style type="text/css">
	.st0{display:none;}
	.st1{display:inline;}
	.st2{fill:#00DE8D;}
	.st3{display:inline;fill:#00DE8D;}
	.st4{display:none;fill:#00DE8D;}
</style>
<g id="Videocall" class="st0">
	<g class="st1">
		<path class="st2" d="M156.28,154.46c6.4,0.94,6.94,1.67,6.22,7.69c-1.03,8.51-8.18,14.74-17.27,14.81
			c-12.22,0.09-24.44,0.03-36.65,0.03c-24.44,0-48.87,0.03-73.31-0.01c-9.07-0.01-16.23-5.21-17.46-13.57
			c-1.12-7.6-1.53-7.87,5.85-9.05c0-1.4,0-2.88,0-4.36c0-21.41-0.01-42.82,0-64.24c0-11.33,4.7-15.98,16.13-15.98
			c33.63,0,67.26,0,100.89,0c10.51,0,15.58,5.01,15.59,15.45c0.02,21.54,0.01,43.08,0.01,64.62
			C156.28,151.33,156.28,152.82,156.28,154.46z M89.98,75.81c-17.27,0-34.54-0.02-51.8,0.01c-5.52,0.01-8.39,2.38-8.41,7.47
			c-0.1,22.94-0.03,45.88-0.08,68.82c-0.01,2.17,0.81,2.83,2.89,2.8c6.55-0.09,13.11-0.13,19.66,0.02c2.32,0.05,3.53-0.74,4.72-2.76
			c5.09-8.63,12.62-14.02,22.62-15.31c4.84-0.62,9.8-0.51,14.71-0.52c12.62-0.03,22.34,5.33,28.85,16.16
			c1.18,1.96,2.48,2.45,4.55,2.41c6.17-0.1,12.36-0.19,18.53,0.03c3.06,0.11,4.11-0.71,4.09-3.95c-0.14-22.06-0.06-44.11-0.08-66.17
			c-0.01-6.72-2.37-9-9.19-9.01C124.01,75.8,107,75.81,89.98,75.81z M23.69,161.12c1.23,6.52,4.86,9.37,11.84,9.38
			c36.28,0.02,72.56,0.01,108.83,0c1.13,0,2.27-0.02,3.39-0.17c4.84-0.67,7.95-4.04,8.43-9.21
			C112.12,161.12,68.07,161.12,23.69,161.12z M62.38,154.5c18.6,0,36.63,0,55.15,0c-4.28-6.49-9.86-10.4-16.8-11.29
			c-6.54-0.85-13.3-0.93-19.88-0.4C73.1,143.43,67.13,147.68,62.38,154.5z"/>
	</g>
	<path class="st3" d="M67.88,105.81c0.34-9.42,4.52-16.37,12.89-20.34c8.47-4.03,16.81-3.15,24.13,2.72
		c7.64,6.13,9.88,14.38,7.51,23.76c-1.77,7.01-5.33,13.04-11.2,17.48c-6.93,5.25-14.8,5.26-21.56-0.18
		C72.17,123.22,68.41,115.23,67.88,105.81z M90.84,89.26c-9.82-0.09-17.31,7.47-16.75,17.27c0.43,7.4,3.81,13.49,9.59,18.08
		c4.6,3.66,9.47,3.56,14.16-0.11c5.18-4.06,7.98-9.57,9.1-15.99C108.69,98.43,101.1,89.36,90.84,89.26z"/>
</g>
<g id="Chatmessaging" class="st0">
	<path class="st3" d="M52.91,161.82c-6.25,0-12.05-0.08-17.85,0.03c-3.06,0.06-4.38-1.11-4.37-4.24c0.05-29.96,0.06-59.93,0-89.89
		c-0.01-3.08,1.14-4.35,4.26-4.34c36.66,0.05,73.32,0.05,109.98,0c3.06,0,4.33,1.14,4.33,4.27c-0.06,29.96-0.03,59.93-0.04,89.89
		c0,3.56-0.8,4.27-4.6,4.28c-18.44,0.01-36.88-0.04-55.32,0.08c-1.8,0.01-3.88,0.71-5.35,1.76c-8.47,6.07-16.76,12.39-25.21,18.49
		c-1.18,0.85-3.1,1.51-4.35,1.13c-0.8-0.24-1.37-2.51-1.41-3.88C52.82,173.71,52.91,168.02,52.91,161.82z M143.4,156.34
		c0-29.4,0-58.3,0-87.25c-35.78,0-71.3,0-106.91,0c0,29.1,0,58.01,0,87.26c6.04,0,11.83,0.08,17.63-0.03
		c3.1-0.06,4.36,1.17,4.26,4.3c-0.15,4.78-0.04,9.57-0.04,14.89c1.41-0.97,2.39-1.6,3.33-2.29c6.71-4.95,13.34-10.02,20.16-14.81
		c1.66-1.16,3.95-1.95,5.96-1.97c17.12-0.15,34.25-0.09,51.38-0.09C140.47,156.34,141.77,156.34,143.4,156.34z"/>
	<path class="st3" d="M89.97,127.94c-8.56,0-17.11,0-25.67,0c-0.88,0-1.93,0.27-2.59-0.11c-1.08-0.62-1.9-1.69-2.83-2.57
		c0.98-0.95,1.84-2.49,2.97-2.73c2.1-0.45,4.36-0.14,6.55-0.14c15.58,0,31.15,0,46.73,0c0.66,0,1.32,0.01,1.97,0
		c2.04-0.04,3.92,0.32,3.91,2.86c-0.01,2.39-1.85,2.67-3.73,2.68c-2.74,0.01-5.48,0.01-8.23,0.01
		C102.69,127.94,96.33,127.94,89.97,127.94z"/>
	<path class="st3" d="M89.96,94.59c8.88,0,17.76,0,26.64,0c1.99,0,4.31-0.25,4.39,2.62c0.08,2.87-2.17,2.79-4.21,2.79
		c-17.87-0.01-35.75,0-53.62,0c-1.9,0-4.03,0.17-4.23-2.45c-0.19-2.56,1.63-2.97,3.72-2.96C71.76,94.6,80.86,94.59,89.96,94.59z"/>
</g>
<g id="English" class="st0">
	<path class="st3" d="M49.7,164.37c-3.65,0-6.64,0.05-9.63-0.01c-11.32-0.2-17.6-6.54-17.61-17.76c-0.01-24.48-0.01-48.96,0-73.44
		c0-10.69,6.52-17.26,17.27-17.27c33.47-0.03,66.95-0.03,100.42,0c10.76,0.01,17.29,6.58,17.29,17.26c0.01,24.48,0.01,48.96,0,73.44
		c0,11.21-6.29,17.67-17.6,17.75c-15.36,0.11-30.73-0.06-46.09,0.13c-2.16,0.03-4.65,0.89-6.4,2.17c-9.87,7.22-19.51,14.78-29.38,22
		c-1.6,1.17-4.47,2.26-5.89,1.58c-1.38-0.66-2.21-3.62-2.29-5.61C49.53,178.03,49.7,171.44,49.7,164.37z M57.62,179.11
		c1.57-1.12,2.56-1.79,3.52-2.51c7.67-5.81,15.24-11.74,23.05-17.35c1.87-1.34,4.5-2.25,6.79-2.28c16.11-0.19,32.23-0.08,48.35-0.12
		c7.53-0.02,10.64-3.19,10.64-10.78c0.01-24.24,0.01-48.47,0-72.71c0-6.66-3.17-9.89-9.88-9.89c-33.23-0.03-66.46-0.03-99.69,0
		c-6.96,0.01-10.16,3.17-10.17,10.05c-0.03,24.49-0.03,48.97,0,73.46c0.01,6.53,3.09,9.69,9.57,9.86c4.12,0.11,8.25-0.01,12.37,0.04
		c4.42,0.05,5.43,1.11,5.46,5.62C57.64,167.82,57.62,173.13,57.62,179.11z"/>
	<path class="st3" d="M65.46,112.37c0,3.98,0,7.32,0,11.25c5.95,0,11.76,0,17.58,0c7.26,0,7.26,0,6.36,7.74
		c-10.86,0-21.75,0-32.87,0c0-14.35,0-28.64,0-43.21c10.55,0,20.98,0,31.68,0c0,2.26,0,4.57,0,7.35c-7.37,0-14.91,0-22.66,0
		c0,3.25,0,6.04,0,9.37c5.18,0,10.26,0,15.33,0c6.54,0,6.79,0.34,5.28,7.5C79.42,112.37,72.61,112.37,65.46,112.37z"/>
	<path class="st3" d="M105.86,88.16c0,11.86,0,23.41,0,35.43c7.34,0,14.38,0,21.62,0c0,2.8,0,5.13,0,7.75c-10.1,0-20.24,0-30.57,0
		c0-14.32,0-28.61,0-43.18C99.74,88.16,102.52,88.16,105.86,88.16z"/>
</g>
<g id="Malay" class="st0">
	<path class="st3" d="M49.7,164.37c-3.67,0-6.66,0.05-9.65-0.01c-11.31-0.21-17.58-6.55-17.58-17.78c-0.01-24.48-0.01-48.96,0-73.44
		c0-10.69,6.52-17.24,17.3-17.25c33.47-0.03,66.95-0.03,100.42,0c10.74,0.01,17.27,6.59,17.27,17.28c0.01,24.48,0.01,48.96,0,73.44
		c0,11.19-6.31,17.65-17.63,17.73c-15.36,0.11-30.73-0.06-46.09,0.13c-2.16,0.03-4.65,0.9-6.4,2.18c-9.87,7.23-19.51,14.78-29.38,22
		c-1.6,1.17-4.48,2.24-5.89,1.55c-1.38-0.68-2.19-3.63-2.28-5.62C49.53,178.01,49.7,171.42,49.7,164.37z M57.62,179.26
		c9-6.83,17.32-12.98,25.44-19.39c2.83-2.24,5.71-3.09,9.26-3.06c15.61,0.13,31.23,0.08,46.85,0.05
		c7.64-0.01,10.79-3.12,10.79-10.63c0.02-24.36,0.02-48.72,0-73.08c0-6.37-3.25-9.66-9.72-9.67c-33.36-0.04-66.71-0.04-100.07,0
		c-6.69,0.01-9.94,3.25-9.95,9.89c-0.04,24.61-0.04,49.22,0,73.83c0.01,6.28,3.12,9.44,9.42,9.63c3.87,0.12,7.74,0.02,11.62,0.03
		c5.51,0.02,6.35,0.85,6.36,6.23C57.63,168.2,57.62,173.29,57.62,179.26z"/>
	<path class="st3" d="M57.2,97.99c0,11.04,0,22.09,0,33.38c-2.81,0-5.38,0-8.22,0c0-14.33,0-28.73,0-43.49
		c3.86,0,7.59-0.2,11.28,0.14c0.93,0.08,2.18,1.75,2.47,2.88c2.18,8.85,4.14,17.74,6.19,26.62c0.27,1.17,0.62,2.33,1.17,4.36
		c2.51-10.86,4.89-20.81,7.06-30.8c0.51-2.37,1.37-3.43,3.92-3.26c3.21,0.21,6.45,0.05,9.9,0.05c0,14.72,0,29.03,0,43.55
		c-2.72,0-5.29,0-8.28,0c0-11.04,0-22.1,0-33.16c-0.26-0.03-0.52-0.06-0.79-0.09c-2.02,8.81-4.04,17.62-6.05,26.44
		c-1.78,7.85-1.77,7.85-10.4,6.51c-2.5-11.01-5.02-22.13-7.55-33.24C57.68,97.92,57.44,97.95,57.2,97.99z"/>
	<path class="st3" d="M132.26,100.67c-3.1,0-5.69,0-8.23,0c-2.92-6.04-7.57-8.24-13.32-5.76c-1.72,0.75-3.63,2.97-3.83,4.7
		c-0.14,1.25,2.15,3.51,3.8,4.09c4.09,1.46,8.43,2.18,12.65,3.28c6.97,1.82,10.2,5.43,10.34,11.46c0.15,6.31-3.57,11.37-10.08,13.16
		c-5.77,1.6-11.62,1.59-17.28-0.62c-5.73-2.23-8.75-6.82-8.57-12.76c0.58-0.06,1.19-0.18,1.79-0.19c2.11-0.02,4.23-0.01,6.25-0.01
		c2.95,6.68,9.02,9.17,15.57,6.11c1.6-0.75,3.32-2.96,3.45-4.62c0.11-1.33-1.84-3.58-3.35-4.13c-3.95-1.45-8.17-2.16-12.27-3.21
		c-8.34-2.14-11.28-5.53-11.05-12.68c0.21-6.52,4.73-11.41,12.13-12.61c5.65-0.92,11.21-0.57,16.22,2.74
		C130.33,92.17,132.15,95.74,132.26,100.67z"/>
</g>
<g id="Tamil" class="st0">
	<path class="st3" d="M49.7,164.37c-3.55,0-6.65,0.05-9.74-0.01c-11.26-0.23-17.5-6.61-17.5-17.86c0-24.48-0.01-48.96,0-73.44
		c0.01-10.47,6.54-17.14,17-17.16c33.6-0.05,67.2-0.04,100.8,0c10.67,0.01,17.18,6.65,17.19,17.36c0.01,24.48,0.01,48.96,0,73.44
		c0,11.14-6.36,17.57-17.71,17.65c-15.36,0.1-30.73-0.05-46.09,0.12c-2.05,0.02-4.43,0.8-6.09,2.01
		c-9.77,7.16-19.36,14.56-29.01,21.87c-1.97,1.49-4.21,3.86-6.55,1.94c-1.47-1.2-2.11-4.02-2.21-6.16
		C49.52,177.78,49.7,171.41,49.7,164.37z M57.62,179.26c9.25-7.02,17.7-13.61,26.38-19.87c1.96-1.41,4.71-2.38,7.12-2.41
		c16.11-0.21,32.23-0.08,48.35-0.12c7.33-0.02,10.5-3.22,10.5-10.54c0.02-24.36,0.02-48.72,0-73.08c0-6.42-3.2-9.74-9.64-9.75
		c-33.48-0.04-66.96-0.05-100.44,0.01c-6.4,0.01-9.65,3.35-9.66,9.8c-0.04,24.61-0.04,49.22,0,73.83c0.01,6.47,3.14,9.58,9.71,9.73
		c4.25,0.09,8.49,0.06,12.74,0.01c3.44-0.04,5.02,1.58,4.97,5.03C57.56,167.38,57.62,172.86,57.62,179.26z"/>
	<path class="st3" d="M128.27,131.82c-3.69-0.22-7.47,0.62-9.62-0.88c-2-1.39-2.26-5.28-3.38-8.3c-4.72,0-9.45-0.08-14.17,0.08
		c-0.78,0.03-1.85,1-2.23,1.8c-1.06,2.21-1.24,5.84-2.85,6.57c-2.45,1.12-5.79,0.29-9.11,0.29c2.25-6.32,4.46-12.51,6.66-18.71
		c2.58-7.28,5.23-14.54,7.68-21.86c0.75-2.25,1.88-3.03,4.28-3.01c7.17,0.06,7.18-0.05,9.53,6.61
		C119.39,106.62,123.69,118.82,128.27,131.82z M101.91,114.87c3.89,0,7.3,0,11.07,0c-1.8-5.52-3.48-10.7-5.49-16.86
		C105.42,104.24,103.71,109.42,101.91,114.87z"/>
	<path class="st3" d="M66.86,95.68c-4.49,0-8.56,0-12.89,0c0-2.62,0-4.92,0-7.51c11.56,0,23.1,0,34.89,0c0,2.36,0,4.66,0,7.42
		c-4.18,0-8.35,0-12.83,0c0,12.14,0,23.84,0,35.79c-3.13,0-5.93,0-9.17,0C66.86,119.58,66.86,107.79,66.86,95.68z"/>
</g>
<g id="Chinese" class="st0">
	<path class="st3" d="M49.7,164.37c-3.65,0-6.64,0.05-9.63-0.01c-11.32-0.2-17.6-6.54-17.61-17.76c-0.01-24.48-0.01-48.96,0-73.44
		c0-10.69,6.52-17.26,17.27-17.27c33.47-0.03,66.95-0.03,100.42,0c10.76,0.01,17.29,6.58,17.29,17.26c0.01,24.48,0.01,48.96,0,73.44
		c0,11.21-6.29,17.67-17.6,17.75c-15.36,0.11-30.73-0.06-46.09,0.13c-2.16,0.03-4.65,0.89-6.4,2.17c-9.87,7.22-19.51,14.78-29.38,22
		c-1.6,1.17-4.47,2.26-5.89,1.58c-1.38-0.66-2.21-3.62-2.29-5.61C49.53,178.03,49.7,171.44,49.7,164.37z M57.62,179.1
		c1.6-1.13,2.6-1.81,3.56-2.54c7.17-5.43,14.45-10.72,21.44-16.37c3.13-2.53,6.33-3.43,10.28-3.39c15.36,0.16,30.73,0.08,46.1,0.06
		c7.86-0.01,10.95-3.08,10.96-10.84c0.01-24.24,0.01-48.47,0-72.71c0-6.61-3.2-9.83-9.93-9.84c-33.23-0.03-66.46-0.03-99.69,0
		c-6.94,0.01-10.11,3.19-10.12,10.11c-0.03,24.49-0.03,48.97,0,73.46c0.01,6.48,3.13,9.65,9.63,9.8c4,0.1,8,0,11.99,0.03
		c4.77,0.04,5.75,1.01,5.77,5.69C57.64,167.81,57.62,173.05,57.62,179.1z"/>
	<path class="st3" d="M100.11,104.33c5.92,0,11.22,0,16.86,0c0-5.39,0-10.59,0-16.12c3.1,0,5.87,0,8.95,0c0,14.26,0,28.57,0,43.15
		c-2.72,0-5.52,0-8.77,0c0-6.24,0-12.53,0-19.02c-5.75,0-11.06,0-16.85,0c0,6.33,0,12.61,0,19.09c-3.29,0-6.09,0-9.12,0
		c0-14.43,0-28.73,0-43.29c2.97,0,5.77,0,8.94,0C100.11,93.49,100.11,98.69,100.11,104.33z"/>
	<path class="st3" d="M51.14,131.34c-0.73-4.43-0.25-8.16,2.91-11.78c5.82-6.67,11.1-13.81,16.59-20.76
		c0.67-0.84,1.27-1.73,2.27-3.1c-7.35,0-14.14,0-21.18,0c0-2.64,0-4.93,0-7.53c10.8,0,21.59,0,32.55,0
		c0.72,3.78,0.54,7.05-2.22,10.33c-6.73,8.01-13.05,16.36-20.01,25.17c7.83,0,14.98,0,22.4,0c0,2.73,0,5.05,0,7.67
		C73.46,131.34,62.33,131.34,51.14,131.34z"/>
</g>
<rect x="-53.76" y="66.86" class="st2" width="9.92" height="15.43"/>
<path id="Education" class="st4" d="M189.44,76.33c-4.8,2.26-9.25,4.07-13.36,6.45c-1.46,0.85-2.98,3.08-3,4.7
	c-0.22,16.34-0.22,32.69-0.01,49.03c0.02,1.68,1.32,3.94,2.73,4.91c5.65,3.89,8.18,9.39,6.5,15.4c-1.71,6.15-7.05,10.24-13.25,10.13
	c-5.78-0.09-11.05-4.05-12.73-9.56c-1.87-6.13,0.68-12.09,6.4-15.93c1.37-0.92,2.87-2.88,2.89-4.38
	c0.21-16.17,0.13-32.34,0.13-49.64c-4.21,1.97-7.96,3.49-11.43,5.49c-0.86,0.5-1.11,2.57-1.12,3.93c-0.1,7.67-0.39,15.36,0.04,23.01
	c0.48,8.52-3.39,14.34-10.1,18.76c-9.73,6.41-20.76,9.04-32.1,10.05c-14.71,1.31-29.36,0.64-43.36-4.74
	c-4.31-1.65-8.51-3.85-12.34-6.43c-5.87-3.95-8.98-9.49-8.65-16.95c0.35-7.82-0.07-15.68,0.15-23.51c0.08-3-1.04-4.38-3.66-5.56
	c-10.78-4.83-21.45-9.89-32.83-15.18c1.76-0.98,2.95-1.75,4.22-2.34c27.18-12.61,54.35-25.24,81.6-37.7
	c1.86-0.85,4.69-1.23,6.43-0.44c28.17,12.84,56.25,25.9,84.33,38.92C187.64,75.1,188.27,75.6,189.44,76.33z M172.15,76.42
	c-1-0.78-1.34-1.16-1.77-1.36c-22.5-10.44-44.98-20.92-67.57-31.16c-1.77-0.8-4.6-0.57-6.44,0.27C74.7,54.02,53.12,64.08,31.53,74.1
	c-1.17,0.54-2.26,1.26-3.46,1.94c0.41,0.43,0.57,0.73,0.81,0.85c22.94,10.67,45.89,21.34,68.88,31.9c1.17,0.54,3,0.61,4.15,0.08
	C125.2,98.19,148.45,87.39,172.15,76.42z M145.92,96.81c-2.12,0.87-3.8,1.49-5.42,2.24c-12.38,5.72-24.71,11.58-37.19,17.08
	c-1.93,0.85-4.87,0.82-6.81-0.03c-10.97-4.79-21.78-9.96-32.66-14.99c-3.12-1.44-6.27-2.8-9.93-4.44c0,8.46,0.2,16.27-0.07,24.06
	c-0.17,4.89,1.78,8.48,5.62,10.97c3.18,2.07,6.58,3.97,10.13,5.29c13.37,4.99,27.26,5.85,41.34,4.39
	c9.67-1.01,19.27-2.78,27.39-8.41c3.16-2.19,6.85-5.94,7.26-9.35C146.61,114.97,145.92,106.1,145.92,96.81z M175.58,153.43
	c0.02-3.39-3.05-6.56-6.41-6.31c-3.6,0.27-5.85,2.3-6.13,6.01c-0.27,3.43,2.67,6.52,6.08,6.62
	C172.48,159.83,175.56,156.83,175.58,153.43z"/>
<g id="Healthcare" class="st0">
	<path class="st3" d="M72.71,170.93c4.88-0.22,5.54,2.51,5.33,6.17c-0.21,3.65-0.17,7.33-0.01,10.98c0.15,3.7-1.52,4.98-5.1,4.95
		c-13.48-0.11-26.97-0.11-40.45,0c-3.39,0.03-4.94-1.25-4.84-4.67c0.1-3.33,0.17-6.67-0.03-9.99c-0.24-4.02,0.08-7.46,4.92-7.44
		c2.02-7.06-0.14-12.07-5.38-16.55c-5.55-4.75-10.84-9.94-15.46-15.57c-2.43-2.96-4.42-7.27-4.49-11.01
		c-0.41-21.97-0.23-43.95-0.19-65.92c0.01-8.1,5.05-13.62,12.15-13.51c6.93,0.11,11.78,5.52,11.82,13.34
		C31.04,72.2,31,82.68,31,93.73c7.81-2.85,13.1,0.64,18.05,5.92c5.8,6.19,11.95,12.07,18.11,17.9c4.02,3.81,5.75,8.16,5.63,13.76
		C72.53,144.28,72.71,157.25,72.71,170.93z M66.9,171.13c0-14.49,0.13-28.44-0.15-42.38c-0.04-2-1.71-4.29-3.22-5.87
		c-6.81-7.08-13.81-13.96-20.79-20.88c-3.63-3.6-7.34-4.15-10.03-1.6c-2.75,2.61-2.29,6.2,1.41,9.92
		c6.92,6.97,13.99,13.8,20.71,20.95c1.19,1.27,1.03,3.81,1.5,5.76c-1.85-0.49-4.25-0.4-5.47-1.56c-7.24-6.87-14.14-14.1-21.3-21.07
		c-3.33-3.25-4.7-6.93-4.63-11.59c0.19-13.48,0.09-26.97,0.06-40.45c-0.01-5.05-2.46-8.26-6.21-7.87c-4.57,0.47-5.82,3.57-5.81,7.79
		c0.07,21.64-0.07,43.28,0.17,64.92c0.03,2.51,1.37,5.5,3.06,7.4c4.98,5.58,10.2,11,15.79,15.97c5.29,4.71,8.81,9.76,7.39,17.2
		c-0.19,1.01,0.32,2.15,0.54,3.36C48.84,171.13,57.47,171.13,66.9,171.13z M34.17,186.7c12.8,0,25.19,0,37.68,0
		c0-3.22,0-6.13,0-9.31c-12.64,0-25.01,0-37.68,0C34.17,180.52,34.17,183.44,34.17,186.7z"/>
	<path class="st3" d="M167.49,170.96c4.2-0.32,5.04,2.32,4.87,6.02c-0.17,3.82-0.1,7.66-0.03,11.49c0.06,3.08-1.17,4.57-4.43,4.56
		c-13.82-0.08-27.65-0.06-41.47-0.01c-3.19,0.01-4.53-1.43-4.44-4.56c0.09-3.5,0.24-7.01-0.04-10.49c-0.34-4.11,0.65-6.93,5.65-7.04
		c0-13.22,0.2-26.19-0.09-39.14c-0.13-5.89,1.33-10.56,5.81-14.64c6.52-5.94,12.76-12.21,18.81-18.64c4.67-4.96,9.79-7.28,16.9-4.61
		c0-11.5-0.14-22.65,0.05-33.78c0.12-6.68,5.47-11.7,11.88-11.73c6.39-0.03,11.58,4.98,12.02,11.64c0.06,0.83,0.03,1.67,0.03,2.5
		c0,21.65-0.07,43.31,0.06,64.96c0.03,4.68-1.5,8.34-4.82,11.54c-5.16,4.97-9.87,10.43-15.3,15.08
		C167.75,158.55,165.44,163.55,167.49,170.96z M160.64,171c0.08-1.93,0.44-3.6,0.18-5.17c-0.97-5.89,1.52-9.99,5.79-13.84
		c6.05-5.46,11.74-11.35,17.3-17.32c1.56-1.68,2.98-4.27,3-6.46c0.23-22.49,0.18-44.97,0.17-67.46c0-3.78-2.12-6.1-5.75-6.23
		c-3.69-0.13-5.75,2.24-6.16,5.89c-0.13,1.15-0.05,2.33-0.05,3.5c0,12.99-0.1,25.99,0.08,38.98c0.06,4.47-1.21,8.05-4.42,11.18
		c-7.03,6.86-13.93,13.87-20.87,20.82c-1.8,1.8-3.85,4.12-6.16,1.55c-0.67-0.74,0.58-4.26,1.89-5.59
		c6.77-6.88,13.87-13.45,20.81-20.17c3.74-3.62,4.2-7.23,1.39-9.97c-2.73-2.66-6.49-2.23-10.06,1.31
		c-7.22,7.15-14.52,14.23-21.47,21.63c-1.63,1.73-2.79,4.6-2.85,6.98c-0.28,12.15-0.14,24.32-0.11,36.48c0,1.27,0.25,2.54,0.39,3.9
		C142.84,171,151.59,171,160.64,171z M165.76,186.75c0-3.42,0-6.34,0-9.31c-12.73,0-25.11,0-37.64,0c0,3.24,0,6.16,0,9.31
		C140.76,186.75,153.14,186.75,165.76,186.75z"/>
	<path class="st3" d="M80.2,5.72c6.31,2.32,12.58,4.77,18.96,6.87c1.71,0.56,4.19,0.75,5.63-0.09
		c24.47-14.19,54.33,0.82,56.75,28.99c0.37,4.35-0.94,9.48-3.16,13.27c-4.34,7.43-9.19,14.79-15.05,21.06
		c-12.04,12.89-24.9,25.01-37.36,37.51c-2.56,2.57-4.83,3.14-7.58,0.32c-14.3-14.65-28.7-29.2-42.93-43.91
		c-2.41-2.49-4.12-5.64-6.26-8.41C31.4,38.27,51.64,11.94,70.83,8.06c2.92-0.59,5.91-0.89,8.86-1.32C79.86,6.4,80.03,6.06,80.2,5.72
		z M102.3,109.16c10.25-10.16,20.28-19.45,29.5-29.47c7.41-8.05,13.98-16.89,20.64-25.61c3.35-4.39,4.36-9.6,3.33-15.16
		c-4.18-22.52-30.05-33.4-48.84-20.26c-3.67,2.57-5.98,2.58-9.58-0.01c-7.68-5.52-16.4-6.97-25.66-4.63
		c-20.55,5.19-29.23,27.23-17.17,44.42C67.79,77.37,84.76,92.86,102.3,109.16z"/>
</g>
<g id="Housing" class="st0">
	<path class="st3" d="M171.96,100.69c0,31.8,0,63.59,0,95.81c-47.93,0-95.6,0-143.71,0c0-31.94,0-63.85,0-96.5
		c-4.34,0-8.26,0.04-12.18-0.01c-6.17-0.07-10.32-2.7-12.16-7.72c-1.98-5.39-0.26-9.78,3.84-13.44
		C34.09,55.31,60.38,31.74,86.81,8.32c8.08-7.16,18.24-7.19,26.3-0.05c26.56,23.53,52.99,47.2,79.42,70.86
		c3.93,3.52,5.46,7.88,3.56,13.07c-1.79,4.9-5.88,7.66-11.61,7.79c-3.83,0.09-7.66,0.09-11.49,0.15
		C172.86,100.14,172.72,100.28,171.96,100.69z M34.3,93.83c0,2.69,0,4.66,0,6.64c0,28.33,0.08,56.65-0.09,84.98
		c-0.02,4.12,1.08,5.36,5.28,5.34c40.32-0.15,80.65-0.15,120.97,0c4.14,0.01,5.35-1.12,5.32-5.3c-0.17-28.49-0.09-56.99-0.09-85.48
		c0-1.93,0-3.85,0-6.18c6.35,0,12.03,0.37,17.61-0.17c2.39-0.23,5.61-1.86,6.56-3.79c0.75-1.52-0.74-5.2-2.36-6.67
		c-25.96-23.46-52.06-46.77-78.22-70c-5.69-5.06-12.9-5.06-18.58-0.01c-26.16,23.24-52.26,46.54-78.22,70
		c-1.63,1.47-3.12,5.14-2.37,6.67c0.94,1.93,4.16,3.57,6.54,3.81C22.24,94.2,27.91,93.83,34.3,93.83z"/>
	<path class="st3" d="M99.97,182.29c-15.12-13.28-30.13-25.94-44.52-39.28c-11.31-10.48-11.42-28.25-1.12-39.68
		c10.23-11.36,28.24-12.91,40.27-3.41c1.8,1.42,3.48,3,5.4,4.68c1.38-1.23,2.59-2.31,3.81-3.39c12.19-10.78,31.09-9.84,41.83,2.07
		c10.84,12.03,9.94,29.97-2.46,41.11C129.07,157.07,114.68,169.42,99.97,182.29z M100.1,114.74c-3.19-3.52-5.33-6.29-7.88-8.61
		c-9.65-8.81-24.54-8.14-33.19,1.33c-8.68,9.51-7.82,23.52,2.17,32.49c8.66,7.78,17.5,15.37,26.26,23.04
		c4.1,3.59,8.21,7.17,12.55,10.96c13.17-11.54,26.13-22.71,38.88-34.11c9.86-8.82,10.72-22.61,2.32-32.13
		c-8.48-9.61-23.48-10.52-33.16-1.84C105.46,108.2,103.37,111.06,100.1,114.74z"/>
	<path class="st3" d="M121.7,37.91c0,10.42,0,20.35,0,30.6c-14.44,0-28.65,0-43.25,0c0-10.09,0-20.13,0-30.6
		C92.69,37.91,107.03,37.91,121.7,37.91z M96.58,49.83c0-2.21,0-3.92,0-5.62c-4.2,0-8.05,0-11.9,0c0,2.09,0,3.79,0,5.62
		C88.78,49.83,92.52,49.83,96.58,49.83z M115.46,44.22c-4.42,0-8.28,0-12.41,0c0.1,2.11,0.18,3.82,0.26,5.42c4.36,0,8.22,0,12.16,0
		C115.46,47.68,115.46,46.1,115.46,44.22z M84.65,56.43c0,1.98,0,3.69,0,5.69c4.13,0,7.99,0,11.92,0c0-2.1,0-3.82,0-5.69
		C92.47,56.43,88.72,56.43,84.65,56.43z M115.42,56.52c-4.48,0-8.24,0-11.99,0c0,2.09,0,3.82,0,5.48c4.24,0,8.1,0,12.28,0
		C115.6,59.9,115.52,58.31,115.42,56.52z"/>
	<path class="st3" d="M95.65,153.74c-1.49,1.69-2.67,3.03-4.05,4.6c-9.34-8.21-18.59-16.05-27.48-24.27
		c-5.26-4.87-6.14-12.6-2.93-18.86c3.14-6.14,9.26-9.34,16.68-8.57c0,1.72,0,3.47,0,5.34c-0.99,0.22-1.77,0.49-2.58,0.57
		c-4.6,0.46-7.89,2.79-9.14,7.24c-1.3,4.6,0.33,8.36,4,11.49c7.46,6.36,14.78,12.89,22.14,19.36
		C93.27,151.51,94.22,152.42,95.65,153.74z"/>
</g>
<g id="Account">
	<path class="st2" d="M147.99,200c-38.34,0-76.68,0-115.03,0c-7.62-2.56-9.89-8.06-9.86-15.78c0.19-50.24,0.1-100.48,0.1-150.71
		c0-1.5-0.06-3,0.07-4.49c0.64-6.86,4.88-10.84,11.75-11.05c2.09-0.06,4.18-0.01,6.16-0.01C43,3.91,43,3.91,49.97,0
		c27.34,0,54.68,0,82.02,0c0.16,1.81,0.44,3.61,0.45,5.42c0.04,10.32,0.01,20.64,0.03,30.96c0.01,7.42,0.29,7.7,7.48,7.71
		c5.33,0.01,10.65,0,15.98,0c6.6,0,13.2,0,19.7,0c0.26,1.09,0.47,1.57,0.47,2.04c0.02,41.44,0.07,82.88-0.01,124.33
		c-0.01,6.52-4.31,10.68-10.99,11.22c-2.1,0.17-4.22,0.03-6.88,0.03C159.07,190.62,157.39,197.67,147.99,200z M124.98,7.9
		c-1.49-0.17-2.62-0.41-3.75-0.41c-21.99-0.02-43.97-0.04-65.96,0c-5.47,0.01-6.2,0.93-6.2,7.09c-0.01,50.79-0.01,101.58,0,152.37
		c0,6.69,0.44,7.13,7.09,7.13c35.31,0.01,70.62,0.01,105.93,0c6.69,0,6.99-0.31,6.99-7.15c0.01-36.64,0.01-73.27-0.01-109.91
		c0-1.61-0.14-3.23-0.24-5.29c-10.47,0-20.59,0.06-30.71-0.02c-8.91-0.07-13.1-4.36-13.13-13.24
		C124.96,28.34,124.98,18.21,124.98,7.9z M150.88,181.74c-2.61,0-4.58,0-6.55,0c-29.34,0-58.68,0.01-88.01,0
		c-11,0-14.62-3.65-14.62-14.74C41.7,122,41.7,77,41.7,32c0-1.93,0-3.85,0-5.69c-10.38-1.1-10.84-0.71-10.84,8.6
		c0,50.16,0,100.33,0,150.49c0,6.55,0.48,7.05,7.13,7.05c26,0.02,52.01,0.01,78.01,0.01c9.67,0,19.34-0.09,29,0.03
		c4.26,0.05,6.21-1.71,5.89-5.99C150.8,185.2,150.88,183.88,150.88,181.74z"/>
	<path class="st2" d="M174.65,36.47c-11.34,0-22.73,0-34.38,0c0-11.76,0-23.26,0-34.35C151.65,13.49,163.09,24.92,174.65,36.47z"/>
	<path class="st2" d="M158.9,113.36c0,2.16,0,4.12,0,6.53c-33.03,0-66.05,0-99.45,0c0-1.97,0-4.04,0-6.53
		C92.28,113.36,125.31,113.36,158.9,113.36z"/>
	<path class="st2" d="M71,71.99c1.7-2.04,2.86-3.43,4.09-4.91c3.17,1.46,6.22,2.86,9.72,4.47c0-4.16,0-7.45,0-10.92
		c-1.78-0.61-3.5-1.11-5.16-1.78c-4.16-1.69-6.99-4.3-6.75-9.31c0.24-5.07,2.8-8.28,7.22-10.41c1.88-0.9,3.52-2.27,5.36-3.26
		c0.63-0.34,2.14-0.42,2.23-0.21c2.02,4.98,7.7,3.45,10.91,6.23c0.36,0.31,0.74,0.6,1.41,1.14c-1.01,1.5-1.99,2.95-3.05,4.51
		c-2.61-0.99-4.99-1.9-8.18-3.11c0,2.69,0.17,4.64-0.04,6.54c-0.32,2.97,0.81,4.32,3.72,5.29c6.88,2.31,8.57,4.81,8.66,10.51
		c0.09,5.28-2.76,8.3-7.28,10.18c-2.22,0.92-5.56,0.42-5.32,4.34c-1.17-0.17-3.36-0.42-3.36-0.5c0.23-3.15-2.24-3.07-4.18-3.88
		C77.72,75.5,74.58,73.76,71,71.99z M90.29,61.53c-0.4,0.29-0.8,0.58-1.2,0.87c0,2.83,0,5.66,0,8.49c0.42,0.29,0.84,0.57,1.27,0.86
		c1.37-1.62,3.92-3.33,3.81-4.83C94.02,65.03,91.68,63.31,90.29,61.53z M84.33,44.95c-0.59-0.27-1.17-0.55-1.76-0.82
		c-0.94,1.74-2.65,3.5-2.6,5.2c0.04,1.42,2.15,2.77,3.35,4.15c0.34-0.28,0.67-0.56,1.01-0.84C84.33,50.08,84.33,47.52,84.33,44.95z"
		/>
	<path class="st2" d="M145.43,131.76c7.79,0.01,14,6.09,14.15,13.85c0.15,7.82-6.36,14.39-14.22,14.37
		c-7.66-0.02-14.03-6.29-14.18-13.94C131.03,138.22,137.49,131.75,145.43,131.76z"/>
	<path class="st2" d="M117.2,133.34c0,2.39,0,4.34,0,6.65c-19.29,0-38.34,0-57.77,0c0-2.09,0-4.17,0-6.65
		C78.47,133.34,97.65,133.34,117.2,133.34z"/>
	<path class="st2" d="M117.25,153.21c0,2.42,0,4.38,0,6.74c-19.36,0-38.53,0-57.94,0c0-2.34,0-4.41,0-6.74
		C78.62,153.21,97.68,153.21,117.25,153.21z"/>
	<path class="st2" d="M115.7,93.39c0,2.24,0,4.19,0,6.55c-18.83,0-37.49,0-56.39,0c0-2.2,0-4.15,0-6.55
		C77.89,93.39,96.56,93.39,115.7,93.39z"/>
</g>
</svg>
