<?xml version="1.0" encoding="utf-8"?>
<!-- Generator: Adobe Illustrator 24.1.0, SVG Export Plug-In . SVG Version: 6.00 Build 0)  -->
<svg version="1.1" id="Layer_1" xmlns="http://www.w3.org/2000/svg" xmlns:xlink="http://www.w3.org/1999/xlink" x="0px" y="0px"
	 viewBox="0 0 150 150" style="enable-background:new 0 0 150 150;" xml:space="preserve">
<style type="text/css">
	.st0{display:none;}
	.st1{display:inline;}
	.st2{fill:#00DE8D;}
	.st3{display:inline;fill:#00DE8D;}
</style>
<g id="Videocall" class="st0">
	<g class="st1">
		<path class="st2" d="M141.32,106.08c6.4,0.94,6.94,1.67,6.22,7.69c-1.03,8.51-8.18,14.74-17.27,14.81
			c-12.22,0.09-24.44,0.03-36.65,0.03c-24.44,0-48.87,0.03-73.31-0.01c-9.07-0.01-16.23-5.21-17.46-13.57
			c-1.12-7.6-1.53-7.87,5.85-9.05c0-1.4,0-2.88,0-4.36c0-21.41-0.01-42.82,0-64.24c0-11.33,4.7-15.98,16.13-15.98
			c33.63,0,67.26,0,100.89,0c10.51,0,15.58,5.01,15.59,15.45c0.02,21.54,0.01,43.08,0.01,64.62
			C141.32,102.95,141.32,104.44,141.32,106.08z M75.02,27.43c-17.27,0-34.54-0.02-51.8,0.01c-5.52,0.01-8.39,2.38-8.41,7.47
			c-0.1,22.94-0.03,45.88-0.08,68.82c-0.01,2.17,0.81,2.83,2.89,2.8c6.55-0.09,13.11-0.13,19.66,0.02c2.32,0.05,3.53-0.74,4.72-2.76
			c5.09-8.63,12.62-14.02,22.62-15.31c4.84-0.62,9.8-0.51,14.71-0.52c12.62-0.03,22.34,5.33,28.85,16.16
			c1.18,1.96,2.48,2.45,4.55,2.41c6.17-0.1,12.36-0.19,18.53,0.03c3.06,0.11,4.11-0.71,4.09-3.95c-0.14-22.06-0.06-44.11-0.08-66.17
			c-0.01-6.72-2.37-9-9.19-9.01C109.05,27.43,92.03,27.43,75.02,27.43z M8.73,112.74c1.23,6.52,4.86,9.37,11.84,9.38
			c36.28,0.02,72.56,0.01,108.83,0c1.13,0,2.27-0.02,3.39-0.17c4.84-0.67,7.95-4.04,8.43-9.21C97.15,112.74,53.1,112.74,8.73,112.74
			z M47.42,106.12c18.6,0,36.63,0,55.15,0c-4.28-6.49-9.86-10.4-16.8-11.29c-6.54-0.85-13.3-0.93-19.88-0.4
			C58.13,95.05,52.17,99.31,47.42,106.12z"/>
	</g>
	<path class="st3" d="M52.92,57.43C53.26,48,57.44,41.06,65.8,37.08c8.47-4.03,16.81-3.15,24.13,2.72
		c7.64,6.13,9.88,14.38,7.51,23.76c-1.77,7.01-5.33,13.04-11.2,17.48c-6.93,5.25-14.8,5.26-21.56-0.18
		C57.21,74.84,53.44,66.85,52.92,57.43z M75.87,40.88c-9.82-0.09-17.31,7.47-16.75,17.27c0.43,7.4,3.81,13.49,9.59,18.08
		c4.6,3.66,9.47,3.56,14.16-0.11c5.18-4.06,7.98-9.57,9.1-15.99C93.73,50.05,86.14,40.98,75.87,40.88z"/>
</g>
<g id="Chatmessaging" class="st0">
	<path class="st3" d="M37.94,113.44c-6.25,0-12.05-0.08-17.85,0.03c-3.06,0.06-4.38-1.11-4.37-4.24c0.05-29.96,0.06-59.93,0-89.89
		c-0.01-3.08,1.14-4.35,4.26-4.34c36.66,0.05,73.32,0.05,109.98,0c3.06,0,4.33,1.14,4.33,4.27c-0.06,29.96-0.03,59.93-0.04,89.89
		c0,3.56-0.8,4.27-4.6,4.28c-18.44,0.01-36.88-0.04-55.32,0.08c-1.8,0.01-3.88,0.71-5.35,1.76c-8.47,6.07-16.76,12.39-25.21,18.49
		c-1.18,0.85-3.1,1.51-4.35,1.13c-0.8-0.24-1.37-2.51-1.41-3.88C37.86,125.34,37.94,119.64,37.94,113.44z M128.43,107.96
		c0-29.4,0-58.3,0-87.25c-35.78,0-71.3,0-106.91,0c0,29.1,0,58.01,0,87.26c6.04,0,11.83,0.08,17.63-0.03
		c3.1-0.06,4.36,1.17,4.26,4.3c-0.15,4.78-0.04,9.57-0.04,14.89c1.41-0.97,2.39-1.6,3.33-2.29c6.71-4.95,13.34-10.02,20.16-14.81
		c1.66-1.16,3.95-1.95,5.96-1.97c17.12-0.15,34.25-0.09,51.38-0.09C125.51,107.96,126.81,107.96,128.43,107.96z"/>
	<path class="st3" d="M75,79.56c-8.56,0-17.11,0-25.67,0c-0.88,0-1.93,0.27-2.59-0.11c-1.08-0.62-1.9-1.69-2.83-2.57
		c0.98-0.95,1.84-2.49,2.97-2.73c2.1-0.45,4.36-0.14,6.55-0.14c15.58,0,31.15,0,46.73,0c0.66,0,1.32,0.01,1.97,0
		c2.04-0.04,3.92,0.32,3.91,2.86c-0.01,2.39-1.85,2.67-3.73,2.68c-2.74,0.01-5.48,0.01-8.23,0.01C87.73,79.56,81.36,79.56,75,79.56z
		"/>
	<path class="st3" d="M74.99,46.21c8.88,0,17.76,0,26.64,0c1.99,0,4.31-0.25,4.39,2.62c0.08,2.87-2.17,2.79-4.21,2.79
		c-17.87-0.01-35.75,0-53.62,0c-1.9,0-4.03,0.17-4.23-2.45c-0.19-2.56,1.63-2.97,3.72-2.96C56.79,46.23,65.89,46.21,74.99,46.21z"/>
</g>
<g>
	<path class="st2" d="M34.74,115.99c-3.65,0-6.64,0.05-9.63-0.01c-11.32-0.2-17.6-6.54-17.61-17.76c-0.01-24.48-0.01-48.96,0-73.44
		c0-10.69,6.52-17.26,17.27-17.27c33.47-0.03,66.95-0.03,100.42,0c10.76,0.01,17.29,6.58,17.29,17.26c0.01,24.48,0.01,48.96,0,73.44
		c0,11.21-6.29,17.67-17.6,17.75c-15.36,0.11-30.73-0.06-46.09,0.13c-2.16,0.03-4.65,0.89-6.4,2.17c-9.87,7.22-19.51,14.78-29.38,22
		c-1.6,1.17-4.47,2.26-5.89,1.58c-1.38-0.66-2.21-3.62-2.29-5.61C34.57,129.65,34.74,123.06,34.74,115.99z M42.66,130.73
		c1.57-1.12,2.56-1.79,3.52-2.51c7.67-5.81,15.24-11.74,23.05-17.35c1.87-1.34,4.5-2.25,6.79-2.28c16.11-0.19,32.23-0.08,48.35-0.12
		c7.53-0.02,10.64-3.19,10.64-10.78c0.01-24.24,0.01-48.47,0-72.71c0-6.66-3.17-9.89-9.88-9.89c-33.23-0.03-66.46-0.03-99.69,0
		c-6.96,0.01-10.16,3.17-10.17,10.05c-0.03,24.49-0.03,48.97,0,73.46c0.01,6.53,3.09,9.69,9.57,9.86c4.12,0.11,8.25-0.01,12.37,0.04
		c4.42,0.05,5.43,1.11,5.46,5.62C42.68,119.44,42.66,124.75,42.66,130.73z"/>
	<path class="st2" d="M50.49,63.99c0,3.98,0,7.32,0,11.25c5.95,0,11.76,0,17.58,0c7.26,0,7.26,0,6.36,7.74c-10.86,0-21.75,0-32.87,0
		c0-14.35,0-28.64,0-43.21c10.55,0,20.98,0,31.68,0c0,2.26,0,4.57,0,7.35c-7.37,0-14.91,0-22.66,0c0,3.25,0,6.04,0,9.37
		c5.18,0,10.26,0,15.33,0c6.54,0,6.79,0.34,5.28,7.5C64.46,63.99,57.65,63.99,50.49,63.99z"/>
	<path class="st2" d="M90.9,39.78c0,11.86,0,23.41,0,35.43c7.34,0,14.38,0,21.62,0c0,2.8,0,5.13,0,7.75c-10.1,0-20.24,0-30.57,0
		c0-14.32,0-28.61,0-43.18C84.77,39.78,87.55,39.78,90.9,39.78z"/>
</g>
</svg>
