<?xml version="1.0" encoding="iso-8859-1"?>
<!-- Generator: Adobe Illustrator 19.0.0, SVG Export Plug-In . SVG Version: 6.00 Build 0)  -->
<svg version="1.1" id="Capa_1" xmlns="http://www.w3.org/2000/svg" xmlns:xlink="http://www.w3.org/1999/xlink" x="0px" y="0px"
	 viewBox="0 0 512 512" style="enable-background:new 0 0 512 512;" xml:space="preserve">
<g>
	<g>
		<path d="M482.821,370.535c-14.737-16.688-40.303-18.273-56.989-3.538c-5.305,4.685-10.766,9.098-16.351,13.269l-35.125-47.669
			c15.843-7.164,26.901-23.108,26.901-41.597c0-25.163-20.472-45.636-45.635-45.636h-44.038v-45.734v-0.575h38.267
			c6.299,0,12.219,2.406,16.702,6.499c2.479,2.263,4.525,5.036,5.939,8.219c2.488,5.604,7.984,8.934,13.744,8.934
			c2.038,0,4.109-0.417,6.092-1.298c7.586-3.369,11.005-12.25,7.636-19.836c-8.788-19.79-28.458-32.578-50.112-32.578H173.182
			l-31.144-112.98c-5.412-19.633-18.145-35.983-35.854-46.038C88.475-0.08,67.911-2.637,48.277,2.776
			c-8.002,2.206-12.701,10.482-10.495,18.483l71.479,259.307c5.265,19.103,17.629,34.86,33.741,44.757l-40.484,54.943
			c-5.584-4.171-11.046-8.584-16.35-13.269c-8.084-7.14-18.466-10.706-29.228-10.035c-10.763,0.668-20.622,5.489-27.761,13.573
			c-7.139,8.084-10.702,18.464-10.034,29.228c0.668,10.763,5.489,20.622,13.572,27.76C94.405,481.998,173.701,512,256,512
			s161.595-30.001,223.283-84.477c8.084-7.139,12.904-16.998,13.573-27.761C493.523,388.999,489.96,378.619,482.821,370.535z
			 M281.526,199.055v46.31h-87.292l-12.765-46.31H281.526z M127.652,396.829l44.883-60.912c3.396,0.466,6.847,0.718,10.344,0.718
			h157.116l44.353,60.194C305.188,442.532,206.811,442.531,127.652,396.829z"/>
	</g>
</g>
<g>
</g>
<g>
</g>
<g>
</g>
<g>
</g>
<g>
</g>
<g>
</g>
<g>
</g>
<g>
</g>
<g>
</g>
<g>
</g>
<g>
</g>
<g>
</g>
<g>
</g>
<g>
</g>
<g>
</g>
</svg>
