<svg height="506pt" viewBox="0 -50 506.0868 506" width="506pt" xmlns="http://www.w3.org/2000/svg"><path d="m449.679688 145.589844c-1.121094-1.625-2.964844-2.59375-4.9375-2.59375-1.972657 0-3.820313.96875-4.941407 2.59375l-55.34375 80.207031c-1.265625 1.785156-1.410156 4.136719-.375 6.066406 1.050781 1.941407 3.105469 3.128907 5.3125 3.078125h47.363281c-6.585937 45-29.933593 85.398438-66.121093 114.898438-34.207031 27.878906-77.199219 43.933594-117.949219 43.933594-26.585938 0-54.378906-6.777344-80.367188-19.65625-26.691406-13.15625-50.054687-32.195313-68.332031-55.679688-2.027343-2.625-5.792969-3.109375-8.417969-1.082031-2.625 2.027343-3.109374 5.792969-1.082031 8.417969 19.390625 24.933593 44.183594 45.148437 72.507813 59.128906 27.636718 13.699218 57.269531 20.933594 85.699218 20.933594 43.464844 0 89.21875-17.097657 125.53125-46.695313 39-31.78125 63.988282-75.199219 70.65625-124.199219h51.203126c2.210937.054688 4.261718-1.136718 5.3125-3.078125 1.039062-1.929687.894531-4.277343-.371094-6.066406zm0 0"/><path d="m61.351562 262.902344c1.972657-.003906 3.820313-.976563 4.9375-2.601563l55.347657-80.144531c1.277343-1.808594 1.421875-4.183594.375-6.132812-1.042969-1.953126-3.101563-3.144532-5.3125-3.082032h-47.363281c6.585937-45 29.933593-85.402344 66.121093-114.902344 34.207031-27.875 77.199219-43.929687 117.949219-43.929687 26.585938 0 54.378906 6.773437 80.367188 19.652344 26.691406 13.160156 50.054687 32.195312 68.332031 55.683593 2.023437 2.621094 5.792969 3.105469 8.417969 1.082032 2.621093-2.027344 3.105468-5.796875 1.082031-8.421875-19.390625-24.933594-44.183594-45.148438-72.507813-59.125-27.636718-13.699219-57.269531-20.9375002-85.699218-20.9375002-43.46875 0-89.222657 17.1015622-125.53125 46.6992192-39 31.785156-63.988282 75.203124-70.65625 124.203124h-51.203126c-2.210937-.0625-4.269531 1.128907-5.3125 3.078126-1.046874 1.949218-.902343 4.320312.371094 6.128906l55.347656 80.175781c1.121094 1.617187 2.96875 2.578125 4.9375 2.574219zm0 0"/><path d="m251.921875 61.941406h.25c11.527344 0 20.875 9.34375 20.875 20.871094v11.253906c0 11.527344-9.347656 20.875-20.875 20.875h-.25c-11.53125 0-20.875-9.347656-20.875-20.875v-11.253906c0-11.527344 9.34375-20.871094 20.875-20.871094zm0 0"/><path d="m199.046875 213.667969c.09375 6.507812 2.796875 12.703125 7.5 17.203125l5.074219 4.726562c6.582031 6.371094 10.484375 15.015625 10.90625 24.167969l4 84.171875h53.179687l4.0625-84.234375c.4375-9.136719 4.320313-17.765625 10.867188-24.152344l4.96875-4.730469c4.664062-4.476562 7.34375-10.636718 7.4375-17.101562v-52.648438c0-.199218-.199219-.460937-.183594-.660156.523437-6.238281-1.566406-12.414062-5.769531-17.054687-4.203125-4.636719-10.140625-7.324219-16.398438-7.414063h-1.113281l-7.890625 22.0625c-.695312 1.992188-2.367188 3.488282-4.425781 3.957032-.101563.019531-.199219.027343-.308594.042968l5.976563 55.617188c.191406 1.804687-.441407 3.597656-1.722657 4.882812l-17.917969 17.914063c-2.34375 2.34375-6.140624 2.34375-8.484374 0l-17.917969-17.921875c-1.28125-1.289063-1.917969-3.089844-1.722657-4.898438l5.972657-55.65625c-2.238281-.363281-4.089844-1.949218-4.789063-4.109375l-7.089844-21.890625h-1.847656c-6.257812.089844-12.203125 2.773438-16.40625 7.414063-4.207031 4.636719-6.296875 10.8125-5.773437 17.054687.019531.199219-.183594.457032-.183594.660156zm0 0"/><path d="m248.351562 151.339844-6.949218 64.710937 11.644531 11.644531 11.644531-11.648437-6.898437-64.230469-5.054688-5.375zm0 0"/></svg>