<svg height="512" viewBox="0 0 56 56" width="512" xmlns="http://www.w3.org/2000/svg"><g id="Page-1" fill="none" fill-rule="evenodd"><g id="028---Video-Chat" fill="rgb(0,0,0)" fill-rule="nonzero"><path id="Shape" d="m31.53 37h-14.81l-.58 1.73 1.27 1.27h13.8c.6736897-.4192896 1.3871546-.7709977 2.13-1.05-.6715972-.5831274-1.2784305-1.2368982-1.81-1.95z"/><path id="Shape" d="m15.05 35.68c.1411508-.4046466.5214529-.6768629.95-.68h14.29c-.3189656-.6433277-.5832312-1.3123546-.79-2h-24.99l-3.57 5h13.34z"/><circle id="Oval" cx="24" cy="17.5" r="5"/><path id="Shape" d="m41.5 40c4.9047142-.0067061 9.1513804-3.4080557 10.2290517-8.1929163s-1.3007867-9.6783552-5.7290517-11.7870837c-.3251783-.1586753-.6590411-.2988976-1-.42-.3271238-.1196381-.6610408-.2198132-1-.3-.8179465-.2017661-1.6575395-.3025172-2.5-.3-3.0478126-.0043695-5.9466892 1.3176644-7.9417001 3.6218155-1.9950108 2.3041512-2.8886884 5.3623532-2.4482999 8.3781845.0958186.681418.2599792 1.3514616.49 2 .2485602.6986616.5703517 1.3690607.96 2 .3579284.5750369.7661974 1.1171646 1.22 1.62 1.9879471 2.1559609 4.7874076 3.3816315 7.72 3.38z"/><path id="Shape" d="m15 28.43c-.0116616-2.6351475 1.4513718-5.055522 3.79-6.27-2.4142354-2.714808-2.3403126-6.8281545.1699105-9.4544628 2.510223-2.6263084 6.6160302-2.88598358 9.4371339-.5968595 2.8211036 2.2891241 3.4126685 6.3603813 1.3597027 9.3577212s-6.0628895 3.9169028-9.2167471 2.1136011c-2.1213533.6578207-3.5601734 2.6290856-3.54 4.85v2.57h2v-2.5c0-.5522847.4477153-1 1-1s1 .4477153 1 1v2.5h8.09c-.0604638-.4977056-.0905196-.9986354-.09-1.5.0093645-6.8996768 5.6003232-12.4906355 12.5-12.5.8395258.0009402 1.6769123.0846789 2.5.25v-2.25h-9.13c-.7391827.0052441-1.4189643-.4041698-1.76-1.06-.3522322-.6472071-.3175957-1.4361512.09-2.05l2.8-4.19v-2.7h-30c-.55228475 0-1 .44771525-1 1v25h10zm-7.707-17.137 4-4c.3923789-.37897221 1.0160848-.37355237 1.4018186.01218142.3857338.3857338.3911536 1.00943969.0121814 1.40181858l-4 4c-.39237889.3789722-1.01608478.3735524-1.40181858-.0121814-.38573379-.3857338-.39115363-1.0094397-.01218142-1.4018186zm.707 7.707c-.4043959-.0000863-.76893405-.2437275-.92367798-.6173454-.15474393-.373618-.06922994-.8036603.21667798-1.0896546l10-10c.3923789-.37897221 1.0160848-.37355237 1.4018186.01218142.3857338.3857338.3911536 1.00943969.0121814 1.40181858l-10 10c-.18749273.1875494-.44180519.2929434-.707.293z"/><path id="Shape" d="m47.61 40.39c-3.7905692 2.1464319-8.4294308 2.1464319-12.22 0-.480191.1201293-.9513506.2738409-1.41.46-.7754937.2966209-1.5138011.6825543-2.2 1.15-.9257615.6138482-1.7520133 1.365906-2.45 2.23-.4425835.5513988-.8310428 1.1441342-1.16 1.77-.7683105 1.4833875-1.1695381 3.1294494-1.17 4.8v4.2c0 .5522847.4477153 1 1 1h5v-2c0-.5522847.4477153-1 1-1s1 .4477153 1 1v2h13v-2c0-.5522847.4477153-1 1-1s1 .4477153 1 1v2h5c.5522847 0 1-.4477153 1-1v-4.2c-.0645833-4.9884528-3.5291343-9.2871389-8.39-10.41z"/><path id="Shape" d="m55 0h-16c-.5522847 0-1 .44771525-1 1v7c.0004838.19634044-.058811.3881766-.17.55l-2.96 4.45h20.13c.5522847 0 1-.4477153 1-1v-11c0-.55228475-.4477153-1-1-1zm-3 10h-10c-.5522847 0-1-.44771525-1-1s.4477153-1 1-1h10c.5522847 0 1 .44771525 1 1s-.4477153 1-1 1zm0-5h-10c-.5522847 0-1-.44771525-1-1s.4477153-1 1-1h10c.5522847 0 1 .44771525 1 1s-.4477153 1-1 1z"/><path id="Shape" d="m28.65 42h-11.65c-.2651121-.0019743-.5193164-.1058042-.71-.29l-1.7-1.71h-14.59v2c.0032948 1.1032019.89679813 1.9967052 2 2h25.04c.4595371-.7252413.9996374-1.3961732 1.61-2z"/></g></g></svg>