<?xml version="1.0" encoding="utf-8"?>
<!-- Generator: Adobe Illustrator 24.1.0, SVG Export Plug-In . SVG Version: 6.00 Build 0)  -->
<svg version="1.1" id="Layer_1" xmlns="http://www.w3.org/2000/svg" xmlns:xlink="http://www.w3.org/1999/xlink" x="0px" y="0px"
	 viewBox="0 0 150 150" style="enable-background:new 0 0 150 150;" xml:space="preserve">
<style type="text/css">
	.st0{fill:#00DE8D;}
</style>
<g>
	<g>
		<path class="st0" d="M141.32,106.08c6.4,0.94,6.94,1.67,6.22,7.69c-1.03,8.51-8.18,14.74-17.27,14.81
			c-12.22,0.09-24.44,0.03-36.65,0.03c-24.44,0-48.87,0.03-73.31-0.01c-9.07-0.01-16.23-5.21-17.46-13.57
			c-1.12-7.6-1.53-7.87,5.85-9.05c0-1.4,0-2.88,0-4.36c0-21.41-0.01-42.82,0-64.24c0-11.33,4.7-15.98,16.13-15.98
			c33.63,0,67.26,0,100.89,0c10.51,0,15.58,5.01,15.59,15.45c0.02,21.54,0.01,43.08,0.01,64.62
			C141.32,102.95,141.32,104.44,141.32,106.08z M75.02,27.43c-17.27,0-34.54-0.02-51.8,0.01c-5.52,0.01-8.39,2.38-8.41,7.47
			c-0.1,22.94-0.03,45.88-0.08,68.82c-0.01,2.17,0.81,2.83,2.89,2.8c6.55-0.09,13.11-0.13,19.66,0.02c2.32,0.05,3.53-0.74,4.72-2.76
			c5.09-8.63,12.62-14.02,22.62-15.31c4.84-0.62,9.8-0.51,14.71-0.52c12.62-0.03,22.34,5.33,28.85,16.16
			c1.18,1.96,2.48,2.45,4.55,2.41c6.17-0.1,12.36-0.19,18.53,0.03c3.06,0.11,4.11-0.71,4.09-3.95c-0.14-22.06-0.06-44.11-0.08-66.17
			c-0.01-6.72-2.37-9-9.19-9.01C109.05,27.43,92.03,27.43,75.02,27.43z M8.73,112.74c1.23,6.52,4.86,9.37,11.84,9.38
			c36.28,0.02,72.56,0.01,108.83,0c1.13,0,2.27-0.02,3.39-0.17c4.84-0.67,7.95-4.04,8.43-9.21C97.15,112.74,53.1,112.74,8.73,112.74
			z M47.42,106.12c18.6,0,36.63,0,55.15,0c-4.28-6.49-9.86-10.4-16.8-11.29c-6.54-0.85-13.3-0.93-19.88-0.4
			C58.13,95.05,52.17,99.31,47.42,106.12z"/>
	</g>
	<path class="st0" d="M52.92,57.43C53.26,48,57.44,41.06,65.8,37.08c8.47-4.03,16.81-3.15,24.13,2.72
		c7.64,6.13,9.88,14.38,7.51,23.76c-1.77,7.01-5.33,13.04-11.2,17.48c-6.93,5.25-14.8,5.26-21.56-0.18
		C57.21,74.84,53.44,66.85,52.92,57.43z M75.87,40.88c-9.82-0.09-17.31,7.47-16.75,17.27c0.43,7.4,3.81,13.49,9.59,18.08
		c4.6,3.66,9.47,3.56,14.16-0.11c5.18-4.06,7.98-9.57,9.1-15.99C93.73,50.05,86.14,40.98,75.87,40.88z"/>
</g>
</svg>
